<svg width="251" height="72" viewBox="0 0 251 72" fill="none" xmlns="http://www.w3.org/2000/svg">
<path d="M85.9824 46.2256C84.8294 46.2256 83.7803 46.0967 82.835 45.8389C81.8896 45.5811 80.9587 45.1335 80.042 44.4961V40.7148H82.4697L82.8027 42.9385C83.125 43.2106 83.569 43.4326 84.1348 43.6045C84.7005 43.7692 85.3164 43.8516 85.9824 43.8516C86.5482 43.8516 87.0244 43.7728 87.4111 43.6152C87.805 43.4577 88.1022 43.2357 88.3027 42.9492C88.5104 42.6556 88.6143 42.3118 88.6143 41.918C88.6143 41.5456 88.5212 41.2161 88.335 40.9297C88.1559 40.6361 87.8551 40.3711 87.4326 40.1348C87.0173 39.8913 86.4515 39.6585 85.7354 39.4365C84.4964 39.0713 83.4688 38.6738 82.6523 38.2441C81.8431 37.8073 81.2344 37.2881 80.8262 36.6865C80.4251 36.0778 80.2246 35.3473 80.2246 34.4951C80.2246 33.6501 80.4574 32.9053 80.9229 32.2607C81.3955 31.609 82.0472 31.097 82.8779 30.7246C83.7087 30.3522 84.6683 30.1589 85.7568 30.1445C86.96 30.1302 88.0234 30.2734 88.9473 30.5742C89.8783 30.875 90.6803 31.2939 91.3535 31.8311V35.3545H89.001L88.5928 33.2061C88.3206 33.0342 87.9518 32.8838 87.4863 32.7549C87.028 32.626 86.5052 32.5615 85.918 32.5615C85.4167 32.5615 84.9727 32.6367 84.5859 32.7871C84.2064 32.9375 83.9056 33.1559 83.6836 33.4424C83.4616 33.7288 83.3506 34.0762 83.3506 34.4844C83.3506 34.8353 83.4473 35.1432 83.6406 35.4082C83.834 35.666 84.1562 35.9131 84.6074 36.1494C85.0658 36.3786 85.696 36.6257 86.498 36.8906C88.224 37.3704 89.5309 38.0042 90.4189 38.792C91.3141 39.5798 91.7617 40.6146 91.7617 41.8965C91.7617 42.7845 91.5218 43.5544 91.042 44.2061C90.5622 44.8506 89.889 45.3483 89.0225 45.6992C88.1559 46.0501 87.1426 46.2256 85.9824 46.2256ZM93.0078 46V44.1201L94.6729 43.7979V32.5723L93.0078 32.25V30.3594H99.4746V32.25L97.8096 32.5723V43.7979L99.4746 44.1201V46H93.0078ZM100.678 46V44.1201L102.343 43.7979V32.5723L100.678 32.25V30.3594H102.343H106.983L111.248 41.2627H111.312L115.438 30.3594H121.754V32.25L120.078 32.5723V43.7979L121.754 44.1201V46H115.276V44.1201L117.027 43.7979V40.8008L117.081 33.7432L117.017 33.7324L112.344 45.7852H109.97L105.189 33.8291L105.125 33.8398L105.308 40.4785V43.7979L107.155 44.1201V46H100.678ZM122.871 46V44.1201L124.536 43.7979V32.5723L122.871 32.25V30.3594H124.536H130.315C131.511 30.3594 132.543 30.5706 133.409 30.9932C134.276 31.4085 134.942 31.9922 135.407 32.7441C135.873 33.4889 136.105 34.359 136.105 35.3545C136.105 36.3499 135.873 37.2236 135.407 37.9756C134.942 38.7204 134.276 39.3005 133.409 39.7158C132.543 40.124 131.511 40.3281 130.315 40.3281H127.673V43.7979L129.349 44.1201V46H122.871ZM127.673 37.9111H130.315C131.189 37.9111 131.848 37.6748 132.292 37.2021C132.743 36.7223 132.969 36.1136 132.969 35.376C132.969 34.624 132.743 34.0046 132.292 33.5176C131.848 33.0234 131.189 32.7764 130.315 32.7764H127.673V37.9111ZM137.115 46V44.1201L138.78 43.7979V32.5723L137.115 32.25V30.3594H138.78H141.917H143.808V32.25L141.917 32.5723V43.5938H146.332L146.482 41.3057H148.878V46H137.115ZM150.006 46V44.1201L151.671 43.7979V32.5723L150.006 32.25V30.3594H162.145V34.5811H159.738L159.599 32.7764H154.808V36.708H160.104V39.125H154.808V43.5938H159.856L159.996 41.7246H162.381V46H150.006ZM169.449 46V44.1201L171.114 43.7979V32.5723L169.449 32.25V30.3594H171.114H174.294L181.104 41.209L181.169 41.1982V32.5723L179.171 32.25V30.3594H183.973H185.648V32.25L183.973 32.5723V46H180.943L173.982 35.2578L173.918 35.2686V43.7979L175.927 44.1201V46H169.449ZM186.68 46V44.1201L188.345 43.7979V32.5723L186.68 32.25V30.3594H198.818V34.5811H196.412L196.272 32.7764H191.481V36.708H196.777V39.125H191.481V43.5938H196.53L196.67 41.7246H199.055V46H186.68ZM205.726 46L202.095 32.4111L200.494 32.25V30.3594H206.789V32.25L205.103 32.4971L206.939 40.1025L207.272 41.499H207.337L207.734 40.1025L210.828 30.3594H213.138L216.35 40.3711L216.726 41.6064H216.79L217.112 40.3711L219.014 32.4971L217.23 32.25V30.3594H223.407V32.25L221.914 32.4111L218.24 46H215.404L212.439 36.8584L212.063 35.5693H211.999L211.58 36.9014L208.583 46H205.726ZM230.766 46.2256C229.613 46.2256 228.563 46.0967 227.618 45.8389C226.673 45.5811 225.742 45.1335 224.825 44.4961V40.7148H227.253L227.586 42.9385C227.908 43.2106 228.352 43.4326 228.918 43.6045C229.484 43.7692 230.1 43.8516 230.766 43.8516C231.331 43.8516 231.808 43.7728 232.194 43.6152C232.588 43.4577 232.885 43.2357 233.086 42.9492C233.294 42.6556 233.397 42.3118 233.397 41.918C233.397 41.5456 233.304 41.2161 233.118 40.9297C232.939 40.6361 232.638 40.3711 232.216 40.1348C231.8 39.8913 231.235 39.6585 230.519 39.4365C229.28 39.0713 228.252 38.6738 227.436 38.2441C226.626 37.8073 226.018 37.2881 225.609 36.6865C225.208 36.0778 225.008 35.3473 225.008 34.4951C225.008 33.6501 225.241 32.9053 225.706 32.2607C226.179 31.609 226.83 31.097 227.661 30.7246C228.492 30.3522 229.451 30.1589 230.54 30.1445C231.743 30.1302 232.807 30.2734 233.73 30.5742C234.661 30.875 235.464 31.2939 236.137 31.8311V35.3545H233.784L233.376 33.2061C233.104 33.0342 232.735 32.8838 232.27 32.7549C231.811 32.626 231.288 32.5615 230.701 32.5615C230.2 32.5615 229.756 32.6367 229.369 32.7871C228.99 32.9375 228.689 33.1559 228.467 33.4424C228.245 33.7288 228.134 34.0762 228.134 34.4844C228.134 34.8353 228.23 35.1432 228.424 35.4082C228.617 35.666 228.939 35.9131 229.391 36.1494C229.849 36.3786 230.479 36.6257 231.281 36.8906C233.007 37.3704 234.314 38.0042 235.202 38.792C236.097 39.5798 236.545 40.6146 236.545 41.8965C236.545 42.7845 236.305 43.5544 235.825 44.2061C235.345 44.8506 234.672 45.3483 233.806 45.6992C232.939 46.0501 231.926 46.2256 230.766 46.2256Z" fill="#4D4741"/>
<path fill-rule="evenodd" clip-rule="evenodd" d="M19 0C8.50659 0 0 8.50659 0 19V53C0 63.4934 8.50659 72 19 72H53C63.4934 72 72 63.4934 72 53V19C72 8.50659 63.4934 0 53 0H19ZM17.9727 45.707C19.6914 46.1758 21.599 46.4102 23.6953 46.4102C25.8047 46.4102 27.6471 46.0912 29.2227 45.4531C30.7982 44.8151 32.0221 43.9102 32.8945 42.7383C33.7669 41.5534 34.2031 40.1537 34.2031 38.5391C34.2031 36.2083 33.3893 34.3268 31.7617 32.8945C30.1471 31.4622 27.7708 30.3099 24.6328 29.4375C23.1745 28.9557 22.0286 28.5065 21.1953 28.0898C20.375 27.6602 19.7891 27.2109 19.4375 26.7422C19.0859 26.2604 18.9102 25.7005 18.9102 25.0625C18.9102 24.3203 19.112 23.6888 19.5156 23.168C19.9193 22.6471 20.4661 22.25 21.1562 21.9766C21.8594 21.7031 22.6667 21.5664 23.5781 21.5664C24.6458 21.5664 25.5964 21.6836 26.4297 21.918C27.276 22.1523 27.9466 22.4258 28.4414 22.7383L29.1836 26.6445H33.4609V20.2383C32.237 19.2617 30.7786 18.5 29.0859 17.9531C27.4062 17.4063 25.4727 17.1458 23.2852 17.1719C21.306 17.1979 19.5612 17.5495 18.0508 18.2266C16.5404 18.9037 15.3555 19.8346 14.4961 21.0195C13.6497 22.1914 13.2266 23.5456 13.2266 25.082C13.2266 26.6315 13.5911 27.9596 14.3203 29.0664C15.0625 30.1602 16.1693 31.1042 17.6406 31.8984C19.125 32.6797 20.9935 33.4024 23.2461 34.0664C24.5482 34.4701 25.5768 34.8932 26.332 35.3359C27.1003 35.7656 27.6471 36.2474 27.9727 36.7813C28.3112 37.3021 28.4805 37.901 28.4805 38.5781C28.4805 39.2943 28.2917 39.9193 27.9141 40.4531C27.5495 40.974 27.0091 41.3776 26.293 41.6641C25.5898 41.9505 24.724 42.0938 23.6953 42.0938C22.4844 42.0938 21.3646 41.944 20.3359 41.6445C19.3073 41.332 18.5 40.9284 17.9141 40.4336L17.3086 36.3906H12.8945V43.2656C14.5612 44.4245 16.2539 45.2383 17.9727 45.707ZM33.0938 52.582V56H44.8711V52.582L41.2188 51.9961V36.4883L41.3359 36.4688L53.9922 56H59.5V31.5859L62.5469 31V27.5625H50.7695V31L54.4023 31.5859V47.2695L54.2852 47.2891L41.9023 27.5625H33.0938V31L36.1211 31.5859V51.9961L33.0938 52.582Z" fill="#4D4741"/>
</svg>
